<?xml version="1.0" standalone="no"?>
<!DOCTYPE svg PUBLIC "-//W3C//DTD SVG 20010904//EN"
 "http://www.w3.org/TR/2001/REC-SVG-20010904/DTD/svg10.dtd">
<svg version="1.0" xmlns="http://www.w3.org/2000/svg"
 width="150.000000pt" height="150.000000pt" viewBox="0 0 150.000000 150.000000"
 preserveAspectRatio="xMidYMid meet">

<g transform="translate(0.000000,150.000000) scale(0.100000,-0.100000)"
fill="#000000" stroke="none">
<path d="M680 1481 c-30 -11 -133 -44 -227 -75 -249 -80 -274 -95 -292 -177
-10 -45 0 -243 13 -257 4 -3 3 53 0 124 -8 147 0 177 58 212 60 37 468 166
523 165 67 0 502 -144 538 -177 41 -38 51 -94 38 -216 -14 -131 -14 -137 -1
-124 6 6 12 72 13 155 2 164 -4 184 -71 218 -49 25 -462 161 -505 166 -17 3
-57 -4 -87 -14z"/>
<path d="M520 1394 c-237 -75 -301 -103 -321 -140 -16 -31 -15 -227 1 -266 6
-15 7 23 3 104 -7 145 -1 164 65 197 59 30 412 142 467 148 43 4 77 -4 237
-56 250 -81 292 -98 314 -122 15 -17 17 -35 16 -117 -1 -53 -4 -109 -7 -124
-4 -14 -2 -29 3 -32 12 -7 27 200 18 242 -4 16 -18 39 -30 51 -28 26 -484 181
-531 181 -16 -1 -122 -30 -235 -66z"/>
<path d="M648 1048 c-8 -7 -20 -21 -25 -32 -11 -20 -83 -50 -83 -35 0 5 -7 9
-15 9 -27 0 -16 -29 13 -33 22 -3 20 -4 -10 -6 -57 -2 -180 -30 -205 -46 -12
-8 -29 -15 -36 -15 -8 0 -17 -10 -19 -23 -4 -20 -1 -22 29 -19 18 2 33 1 33
-3 0 -13 -34 -34 -55 -35 -15 0 -17 2 -6 9 9 6 -8 12 -51 20 -36 6 -72 11 -81
11 -9 0 -17 3 -17 8 0 4 20 6 45 4 35 -3 45 -1 45 11 0 22 -5 24 -89 32 -64 6
-73 5 -68 -8 3 -8 0 -20 -6 -26 -9 -9 -6 -13 11 -17 12 -4 22 -11 22 -18 0 -8
2 -8 8 1 10 15 62 4 62 -13 0 -8 -9 -14 -21 -14 -14 0 -19 -5 -16 -15 5 -10
-4 -16 -31 -21 l-37 -7 35 -15 c61 -26 237 -20 354 11 54 15 104 27 111 27 7
0 15 -13 19 -30 5 -29 8 -30 63 -32 32 -2 -88 -5 -267 -8 l-325 -5 0 -120 0
-120 709 -3 c515 -1 713 1 722 9 10 8 14 40 14 113 0 110 -13 146 -52 146 -15
0 -18 4 -13 18 4 9 10 27 12 39 3 13 10 20 16 16 6 -3 7 -1 3 5 -4 7 -15 12
-24 13 -12 0 -10 3 7 10 19 7 21 12 11 24 -14 17 -4 38 13 29 8 -5 9 -4 2 4
-5 6 -23 8 -38 5 -26 -5 -28 -9 -25 -41 l3 -36 -82 -19 c-84 -20 -133 -17
-133 8 0 18 17 20 22 4 3 -8 19 -10 52 -5 37 6 46 11 42 23 -3 8 -6 22 -6 31
0 19 -116 51 -223 61 -37 4 -61 11 -63 19 -1 7 0 8 3 2 3 -6 44 -10 101 -9 57
1 87 4 72 8 -19 6 -24 13 -22 32 8 52 52 52 52 -1 0 -16 5 -30 11 -30 7 0 9
12 5 35 -7 36 4 46 24 23 5 -7 19 -24 30 -38 l21 -25 -15 31 c-22 45 -34 51
-115 57 -114 7 -197 -6 -225 -36 -13 -14 -21 -28 -18 -31 3 -3 3 -6 -1 -6 -3
0 -18 20 -33 45 -31 53 -42 54 -20 1 15 -36 15 -36 -10 -36 -17 0 -28 7 -31
19 -6 22 -43 25 -43 4 0 -8 -13 -13 -35 -13 -24 0 -35 5 -35 15 0 18 -31 20
-49 3 -10 -11 -12 -9 -9 7 3 18 12 20 81 23 59 2 77 6 77 17 0 20 -148 21
-172 3z m482 -42 c0 -28 -12 -46 -31 -46 -22 0 -34 22 -25 45 7 19 56 20 56 1z
m-542 -56 c-10 -15 -10 -23 -2 -28 7 -4 13 -16 15 -27 6 -29 44 -27 43 2 -1
28 38 43 111 43 72 0 112 -15 111 -42 -1 -11 4 -23 11 -25 7 -3 9 3 6 16 -3
12 -1 21 6 21 6 0 11 -9 11 -21 0 -12 4 -17 11 -13 6 3 9 15 6 25 -3 11 -1 19
4 19 5 0 9 7 9 15 0 10 9 15 28 14 17 -1 21 -3 9 -6 -10 -3 -16 -10 -14 -16 4
-14 41 -25 90 -26 20 -1 37 -5 37 -9 0 -5 -26 -5 -57 -1 -32 4 -59 7 -60 5 -9
-9 12 -66 26 -69 10 -3 8 -5 -7 -6 -40 -2 -82 -30 -82 -54 0 -22 -1 -22 -144
-19 -130 3 -143 5 -140 20 3 12 -7 23 -33 37 -29 15 -38 26 -38 45 0 14 -4 28
-10 32 -6 5 -5 8 3 8 6 0 12 8 12 19 0 10 7 24 15 31 8 7 12 16 9 21 -3 5 2 9
10 9 14 0 14 -3 4 -20z m50 -58 c2 -7 -3 -12 -12 -12 -9 0 -16 7 -16 16 0 17
22 14 28 -4z m-553 -12 c-3 -5 3 -11 12 -13 10 -3 2 -5 -17 -5 -19 0 -29 2
-22 5 6 2 12 11 12 19 0 9 5 12 10 9 6 -4 8 -10 5 -15z m1078 3 c-7 -2 -19 -2
-25 0 -7 3 -2 5 12 5 14 0 19 -2 13 -5z m75 -16 c4 -21 -24 -23 -44 -3 -12 13
-12 15 4 19 25 7 37 2 40 -16z m-743 3 c-16 -4 -41 -8 -55 -8 -22 0 -22 1 5 8
17 4 41 8 55 8 22 0 22 -1 -5 -8z m-105 -54 c0 -39 -20 -62 -38 -44 -24 24
-10 78 19 78 15 0 19 -7 19 -34z m776 -11 c4 -14 1 -32 -6 -40 -15 -18 -30
-11 -30 13 0 15 2 15 10 2 7 -12 10 -8 10 15 0 23 -3 27 -10 15 -8 -13 -10
-12 -10 3 0 26 29 20 36 -8z m-113 8 c-7 -2 -19 -2 -25 0 -7 3 -2 5 12 5 14 0
19 -2 13 -5z m344 -18 c-9 -8 -25 -15 -36 -15 -14 0 -19 -5 -15 -15 5 -12 -2
-15 -32 -14 -22 0 -48 4 -59 9 -17 7 -15 9 13 9 21 1 32 6 32 16 0 11 12 15
44 15 25 0 48 5 51 11 4 6 9 8 12 5 3 -3 -2 -12 -10 -21z m-307 7 c-6 -2 -8
-8 -4 -13 3 -5 -23 -9 -60 -9 -59 0 -76 6 -61 22 3 2 34 4 70 4 36 -1 60 -3
55 -4z m-12 -51 c29 -4 58 -13 64 -19 9 -9 -17 -12 -112 -11 -85 0 -118 3
-102 9 12 5 22 14 22 20 0 11 51 12 128 1z m-777 -61 c5 0 9 -9 9 -20 0 -24
-9 -26 -24 -4 -15 20 -42 9 -50 -19 -11 -42 -6 -105 10 -121 21 -21 29 -20 47
7 l16 22 0 -27 c1 -26 -2 -28 -43 -28 -35 0 -48 5 -60 22 -19 26 -21 96 -5
132 12 26 54 48 77 40 8 -2 18 -4 23 -4z m527 4 c13 -4 22 -14 22 -25 0 -23
-8 -24 -31 -3 -10 9 -23 13 -28 9 -21 -12 -11 -40 24 -68 26 -20 35 -36 35
-57 0 -35 -23 -50 -74 -50 -33 0 -36 3 -36 28 l0 27 19 -24 c12 -16 24 -22 35
-18 27 11 18 43 -20 72 -29 22 -35 32 -32 58 2 22 11 35 28 44 29 15 28 15 58
7z m173 -4 c5 0 9 -9 9 -20 0 -24 -9 -26 -25 -3 -14 19 -45 11 -45 -11 0 -8
16 -27 35 -42 27 -20 35 -34 35 -58 0 -43 -16 -56 -67 -56 -39 0 -43 2 -43 25
0 31 7 31 30 3 17 -21 20 -22 35 -7 20 20 7 54 -23 63 -25 8 -46 49 -38 74 7
22 52 43 74 36 8 -2 18 -4 23 -4z m293 0 c14 -5 26 -16 26 -25 0 -19 -9 -19
-32 2 -17 15 -20 15 -35 1 -9 -9 -18 -38 -20 -65 -4 -39 -1 -53 16 -73 l21
-25 18 24 c13 16 21 20 26 12 15 -24 -3 -41 -42 -41 -56 0 -74 18 -80 78 -6
68 14 101 75 121 1 1 13 -3 27 -9z m-872 -85 c-3 -82 -3 -85 18 -85 13 0 24 8
27 20 8 30 23 24 23 -10 0 -30 0 -30 -57 -30 l-58 0 0 95 c0 95 0 95 25 95 25
0 25 0 22 -85z m218 77 c0 -4 11 -46 24 -95 l24 -87 -35 0 c-29 0 -33 3 -24
14 18 22 2 48 -28 44 -21 -2 -26 -8 -26 -30 1 -22 -4 -28 -21 -28 -23 0 -24
-7 41 178 5 13 45 17 45 4z m485 -87 c0 -95 0 -95 -25 -95 -25 0 -25 0 -25 95
0 95 0 95 25 95 25 0 25 0 25 -95z"/>
<path d="M670 895 c0 -22 4 -25 40 -25 36 0 40 3 40 25 0 23 -4 25 -40 25 -36
0 -40 -2 -40 -25z"/>
<path d="M762 895 c1 -15 9 -25 18 -26 10 0 9 -3 -5 -9 -15 -7 -10 -9 23 -9
42 -1 42 -1 42 34 0 34 -1 35 -40 35 -36 0 -40 -2 -38 -25z"/>
<path d="M698 853 c12 -2 30 -2 40 0 9 3 -1 5 -23 4 -22 0 -30 -2 -17 -4z"/>
<path d="M588 843 c12 -2 30 -2 40 0 9 3 -1 5 -23 4 -22 0 -30 -2 -17 -4z"/>
<path d="M587 819 c20 -20 95 -28 211 -22 76 4 116 10 123 20 9 11 2 13 -39
13 -28 0 -54 -4 -57 -10 -3 -5 -35 -10 -71 -10 -36 0 -64 4 -64 10 0 6 -26 10
-57 10 -42 0 -54 -3 -46 -11z"/>
<path d="M354 815 c-3 -14 -4 -28 -1 -31 10 -10 27 7 27 26 0 30 -19 33 -26 5z"/>
<path d="M597 618 c-10 -34 -9 -38 8 -38 16 0 20 27 6 48 -6 10 -10 8 -14 -10z"/>
<path d="M293 1002 c-27 -34 -39 -40 -100 -51 -93 -16 -107 -27 -47 -35 68
-10 85 -16 83 -29 -5 -44 21 -49 31 -6 6 27 66 52 158 64 29 4 55 12 58 17 12
20 16 78 5 78 -6 0 -11 -12 -11 -26 0 -23 -4 -25 -33 -23 -18 2 -38 -1 -45 -5
-7 -4 -25 -4 -40 0 -15 4 -30 7 -34 6 -12 -3 -9 13 4 26 15 15 58 16 58 2 0
-5 7 -10 16 -10 8 0 13 4 9 9 -3 5 9 12 27 14 18 2 2 4 -37 5 -70 2 -70 1
-102 -36z"/>
<path d="M12 470 c14 -23 22 -25 107 -28 78 -2 91 -5 91 -20 0 -9 4 -54 10
-100 18 -162 68 -198 389 -287 96 -26 146 -35 172 -31 52 8 327 100 393 132
80 38 98 67 109 183 5 53 11 102 13 109 2 8 29 12 88 12 64 0 88 4 100 16 9 8
16 20 16 25 0 5 -9 0 -20 -11 -17 -17 -33 -20 -108 -20 l-88 0 -11 -104 c-17
-166 -27 -175 -284 -261 -233 -78 -214 -78 -439 -16 -235 65 -301 116 -315
242 -3 30 -8 73 -11 97 l-5 42 -89 0 c-79 0 -92 3 -111 23 l-23 22 16 -25z"/>
<path d="M245 368 c10 -129 26 -161 105 -210 49 -30 350 -118 405 -118 38 0
218 53 344 101 119 45 140 67 151 154 5 39 9 89 10 113 l0 42 -511 0 -510 0 6
-82z m998 -5 c-8 -113 -21 -143 -68 -170 -66 -37 -367 -133 -417 -133 -25 0
-74 8 -109 19 -35 10 -100 28 -144 41 -106 29 -190 74 -216 116 -14 23 -22 58
-26 118 l-6 86 496 0 495 0 -5 -77z"/>
<path d="M401 377 c-8 -11 -6 -18 9 -32 11 -10 17 -22 14 -26 -3 -5 0 -9 5 -9
16 0 13 26 -4 40 -8 7 -15 17 -15 22 0 6 7 8 15 4 8 -3 15 -1 15 4 0 15 -26
12 -39 -3z"/>
<path d="M460 350 c0 -22 2 -40 4 -40 2 0 6 18 8 40 2 22 0 40 -4 40 -5 0 -8
-18 -8 -40z"/>
<path d="M520 376 c-13 -17 -10 -58 6 -63 6 -2 8 10 6 32 -3 28 -1 35 13 35
14 0 16 -7 13 -35 -5 -40 8 -47 18 -10 11 43 -29 72 -56 41z"/>
<path d="M602 378 c-15 -15 -16 -54 -2 -63 6 -4 10 9 10 31 0 31 3 36 20 31
11 -3 18 -1 14 4 -7 13 -28 11 -42 -3z"/>
<path d="M686 381 c-4 -7 -2 -19 6 -28 11 -15 11 -16 -4 -10 -10 3 -18 2 -18
-3 0 -6 7 -10 15 -10 8 0 15 -4 15 -10 0 -5 5 -10 10 -10 10 0 4 42 -10 69 -5
10 -9 10 -14 2z"/>
<path d="M741 348 c1 -35 2 -38 8 -18 l7 25 13 -23 c7 -13 15 -21 18 -18 8 7
-28 76 -39 76 -5 0 -8 -19 -7 -42z"/>
<path d="M785 380 c3 -5 8 -10 11 -10 2 0 4 5 4 10 0 6 -5 10 -11 10 -5 0 -7
-4 -4 -10z"/>
<path d="M840 350 c0 -22 5 -40 10 -40 6 0 10 7 10 15 0 8 5 15 10 15 6 0 10
-7 10 -15 0 -8 5 -15 10 -15 6 0 10 18 10 40 0 22 -4 40 -10 40 -5 0 -10 -9
-10 -20 0 -11 -4 -20 -10 -20 -5 0 -10 9 -10 20 0 11 -4 20 -10 20 -5 0 -10
-18 -10 -40z"/>
<path d="M920 350 c0 -22 5 -40 10 -40 6 0 10 7 10 15 0 8 5 15 10 15 6 0 10
5 10 11 0 5 -4 7 -10 4 -5 -3 -10 1 -10 10 0 11 5 15 15 11 8 -3 15 -1 15 4 0
6 -11 10 -25 10 -22 0 -25 -4 -25 -40z"/>
<path d="M991 348 c1 -24 3 -35 6 -25 5 21 23 23 23 2 0 -8 4 -15 9 -15 4 0 8
17 7 38 -1 30 -5 38 -23 40 -21 3 -23 0 -22 -40z m29 17 c0 -8 -4 -15 -10 -15
-5 0 -10 7 -10 15 0 8 5 15 10 15 6 0 10 -7 10 -15z"/>
<path d="M1060 350 c0 -22 5 -40 10 -40 6 0 10 7 10 15 0 8 5 15 10 15 6 0 10
5 10 11 0 5 -4 7 -10 4 -5 -3 -10 1 -10 10 0 11 5 15 15 11 8 -3 15 -1 15 4 0
6 -11 10 -25 10 -22 0 -25 -4 -25 -40z"/>
<path d="M630 325 c0 -8 5 -15 10 -15 6 0 10 7 10 15 0 8 -4 15 -10 15 -5 0
-10 -7 -10 -15z"/>
<path d="M738 196 c-18 -13 -10 -41 14 -42 20 -2 29 27 13 42 -8 8 -16 8 -27
0z"/>
<path d="M634 185 c-9 -22 1 -29 15 -11 8 10 9 16 1 21 -5 3 -13 -1 -16 -10z"/>
<path d="M845 190 c-8 -13 15 -24 27 -12 6 6 4 11 -6 15 -8 3 -18 2 -21 -3z"/>
</g>
</svg>
